<?xml version="1.0" encoding="utf-8"?>
<!-- Generator: Adobe Illustrator 24.0.1, SVG Export Plug-In . SVG Version: 6.00 Build 0)  -->
<svg version="1.1" id="Layer_1" xmlns="http://www.w3.org/2000/svg" xmlns:xlink="http://www.w3.org/1999/xlink" x="0px" y="0px"
	 viewBox="0 0 883.14 480" style="enable-background:new 0 0 883.14 480;" xml:space="preserve">
<style type="text/css">
	.st0{fill:#302D7D;}
</style>
<g>
	<path class="st0" d="M45.51,187.03c-1.7-1.81-3.96-3.52-6.76-5.12c-2.8-1.6-6.25-3.19-10.35-4.76c-1.43-0.48-2.8-0.99-4.1-1.54
		c-1.3-0.55-2.44-1.14-3.43-1.79c-0.99-0.65-1.78-1.37-2.36-2.15c-0.58-0.79-0.87-1.66-0.87-2.61c0-2.12,0.8-3.74,2.41-4.87
		c1.6-1.13,3.84-1.69,6.71-1.69c1.57,0,3.11,0.27,4.61,0.82c1.5,0.55,2.83,1.13,4,1.74c1.36,0.75,2.7,1.57,4,2.46l8.81-11.07
		c-1.16-1.02-2.61-2.03-4.35-3.02c-1.74-0.99-3.6-1.86-5.59-2.61c-1.98-0.75-4.01-1.37-6.09-1.84c-2.08-0.48-4.05-0.72-5.89-0.72
		c-3.42,0-6.54,0.53-9.38,1.59c-2.83,1.06-5.26,2.53-7.27,4.41c-2.01,1.88-3.57,4.1-4.66,6.66c-1.09,2.56-1.64,5.31-1.64,8.25
		c0,2.87,0.49,5.4,1.49,7.58c0.99,2.19,2.39,4.13,4.2,5.84c1.81,1.71,3.94,3.19,6.4,4.46c2.46,1.27,5.12,2.44,7.99,3.53
		c2.46,0.96,4.51,1.86,6.15,2.72c1.64,0.86,2.92,1.66,3.84,2.41c0.92,0.75,1.57,1.45,1.95,2.1c0.38,0.65,0.56,1.25,0.56,1.79
		c0,1.43-0.31,2.63-0.92,3.59c-0.62,0.96-1.4,1.73-2.36,2.31c-0.96,0.58-2.02,1.01-3.18,1.28c-1.16,0.28-2.32,0.41-3.48,0.41
		c-1.37,0-2.8-0.27-4.3-0.82c-1.5-0.55-2.94-1.21-4.3-2c-1.37-0.79-2.58-1.6-3.63-2.46c-1.06-0.85-1.83-1.59-2.31-2.2l-10.65,9.84
		c0.54,0.62,1.53,1.61,2.97,2.97c1.44,1.37,3.08,2.63,4.92,3.79h-0.1c2.6,1.64,5.36,2.91,8.3,3.79c2.94,0.89,5.98,1.33,9.12,1.33
		c3.48,0,6.71-0.56,9.68-1.69c2.97-1.13,5.53-2.66,7.68-4.61c2.15-1.95,3.84-4.25,5.07-6.92c1.23-2.66,1.84-5.5,1.84-8.5
		c0-2.46-0.36-4.73-1.07-6.81C48.43,190.79,47.22,188.84,45.51,187.03z"/>
	<path class="st0" d="M113.88,204.96c-2.9,1.47-6.06,2.21-9.48,2.21c-3.07,0-5.96-0.58-8.66-1.74c-2.7-1.16-5.05-2.75-7.07-4.76
		c-2.01-2.01-3.6-4.37-4.76-7.07c-1.17-2.7-1.74-5.59-1.74-8.66c0-3.08,0.58-5.98,1.74-8.71c1.16-2.73,2.75-5.11,4.76-7.12
		c2.01-2.01,4.37-3.62,7.07-4.82s5.58-1.79,8.66-1.79c3.01,0,5.96,0.65,8.86,1.95c2.9,1.3,5.55,3.14,7.94,5.53l9.94-10.04
		c-3.69-3.76-7.88-6.64-12.55-8.66c-4.68-2.01-9.41-3.02-14.19-3.02c-4.71,0-9.27,0.91-13.68,2.71c-4.41,1.81-8.3,4.34-11.68,7.58
		c-3.38,3.24-6.08,7.12-8.09,11.63c-2.02,4.51-3.02,9.43-3.02,14.76c0,4.57,0.86,9.05,2.56,13.42c1.71,4.37,4.15,8.27,7.33,11.68
		c3.18,3.42,7.02,6.16,11.53,8.25s9.53,3.12,15.06,3.12c5.19,0,10.13-1.11,14.8-3.33c4.68-2.22,9.03-5.35,13.07-9.38l-10.04-9.94
		C119.57,201.42,116.79,203.49,113.88,204.96z"/>
	<path class="st0" d="M201.16,183.24c2.32-3.59,3.49-7.63,3.49-12.14c0-3.07-0.6-5.94-1.8-8.61c-1.2-2.66-2.8-5-4.81-7.02
		c-2.02-2.01-4.35-3.6-7.02-4.77c-2.66-1.16-5.5-1.74-8.51-1.74h-29v71.72h14.14v-27.36h8.61l19.47,27.36h17.42l-21.11-29.51
		C195.79,189.47,198.84,186.82,201.16,183.24z M187.84,176.78c-1.71,1.6-4.37,2.41-7.99,2.41h-12.19V163.2h12.19
		c3.62,0,6.29,0.77,7.99,2.31c1.71,1.54,2.56,3.4,2.56,5.59C190.4,173.28,189.54,175.18,187.84,176.78z"/>
	<polygon class="st0" points="231.47,220.69 277.57,220.69 277.57,206.44 245.71,206.44 245.71,192 268.97,192 268.97,177.65 
		245.71,177.65 245.71,163.2 277.57,163.2 277.57,148.96 231.47,148.96 	"/>
	<polygon class="st0" points="300.76,220.69 346.86,220.69 346.86,206.44 315,206.44 315,192 338.26,192 338.26,177.65 315,177.65 
		315,163.2 346.86,163.2 346.86,148.96 300.76,148.96 	"/>
	<polygon class="st0" points="429.37,221.4 429.37,148.96 415.23,148.96 415.23,191.28 376.5,148.25 370.25,148.25 370.25,220.69 
		384.39,220.69 384.39,178.47 423.02,221.4 	"/>
	<path class="st0" d="M587.9,183.24c2.32-3.59,3.48-7.63,3.48-12.14c0-3.07-0.6-5.94-1.79-8.61c-1.2-2.66-2.8-5-4.81-7.02
		c-2.02-2.01-4.36-3.6-7.02-4.77c-2.66-1.16-5.5-1.74-8.51-1.74h-29v71.72h14.14v-27.36h8.6l19.47,27.36h17.42l-21.11-29.51
		C582.53,189.47,585.57,186.82,587.9,183.24z M574.58,176.78c-1.71,1.6-4.37,2.41-7.99,2.41h-12.19V163.2h12.19
		c3.62,0,6.29,0.77,7.99,2.31c1.71,1.54,2.56,3.4,2.56,5.59C577.14,173.28,576.28,175.18,574.58,176.78z"/>
	<path class="st0" d="M651.1,148.25l-31.87,72.44h15.57c0.82-1.98,1.76-4.15,2.82-6.51c1.06-2.36,2.03-4.56,2.92-6.61h27.36
		l5.84,13.11h15.68l-32.28-72.44H651.1z M646.8,193.33l7.37-16.6l7.38,16.6H646.8z"/>
	<polygon class="st0" points="711.63,220.69 725.87,220.69 725.87,192 749.13,192 749.13,177.65 725.87,177.65 725.87,163.2 
		757.73,163.2 757.73,148.96 711.63,148.96 	"/>
	<polygon class="st0" points="775.15,163.2 795.03,163.2 795.03,220.69 809.27,220.69 809.27,163.2 828.94,163.2 828.94,148.96 
		775.15,148.96 	"/>
	<path class="st0" d="M472.96,169.1c2.01-2.01,4.37-3.62,7.07-4.82c2.7-1.2,5.58-1.79,8.66-1.79c3.01,0,5.96,0.65,8.86,1.95
		c2.9,1.3,5.55,3.14,7.94,5.53l9.94-10.04c-3.69-3.76-7.88-6.64-12.55-8.66c-4.68-2.01-9.41-3.02-14.19-3.02
		c-4.71,0-9.27,0.91-13.68,2.72c-4.4,1.81-8.3,4.34-11.68,7.58c-3.38,3.24-6.08,7.12-8.09,11.63c-2.02,4.51-3.02,9.43-3.02,14.76
		c0,4.57,0.85,9.05,2.56,13.42c1.7,4.37,4.15,8.27,7.32,11.68c3.18,3.42,7.02,6.16,11.53,8.25c4.51,2.08,9.53,3.12,15.06,3.12
		c5.19,0,10.12-1.11,14.8-3.33c4.68-2.22,9.03-5.35,13.07-9.38l-10.04-9.94c-2.66,2.66-5.45,4.73-8.35,6.2
		c-2.9,1.47-6.06,2.21-9.48,2.21c-3.07,0-5.96-0.58-8.66-1.74c-2.7-1.16-5.06-2.75-7.07-4.76c-2.01-2.01-3.6-4.37-4.76-7.07
		c-1.16-2.7-1.74-5.59-1.74-8.66c0-3.08,0.58-5.98,1.74-8.71C469.35,173.49,470.94,171.11,472.96,169.1z"/>
	<path class="st0" d="M566.82,260.79c-4.37,1.98-8.16,4.63-11.37,7.94s-5.72,7.16-7.53,11.53c-1.81,4.37-2.71,8.91-2.71,13.62
		c0,5.47,1.03,10.4,3.07,14.81c2.05,4.41,4.77,8.16,8.15,11.27c3.38,3.11,7.22,5.52,11.53,7.22c4.3,1.71,8.71,2.56,13.21,2.56
		c5.19,0,9.99-0.99,14.4-2.97c4.41-1.98,8.2-4.64,11.37-7.99c3.18-3.35,5.65-7.17,7.43-11.48c1.78-4.3,2.66-8.78,2.66-13.42
		c0-5.26-1.01-10.09-3.02-14.5c-2.01-4.4-4.68-8.21-7.99-11.42c-3.32-3.21-7.14-5.7-11.48-7.48c-4.34-1.77-8.79-2.66-13.37-2.66
		C575.97,257.82,571.19,258.81,566.82,260.79z M596.48,278.36c2.01,2.01,3.6,4.35,4.76,7.02c1.16,2.66,1.74,5.5,1.74,8.5
		c0,3.01-0.58,5.82-1.74,8.45s-2.73,4.94-4.71,6.92c-1.98,1.98-4.29,3.55-6.92,4.71c-2.63,1.16-5.45,1.74-8.46,1.74
		c-3.01,0-5.85-0.56-8.56-1.69c-2.7-1.13-5.04-2.68-7.02-4.66c-1.98-1.98-3.55-4.3-4.71-6.97c-1.16-2.66-1.74-5.5-1.74-8.51
		c0-3,0.58-5.84,1.74-8.5c1.16-2.66,2.73-5,4.71-7.02c1.98-2.01,4.3-3.6,6.97-4.77c2.67-1.16,5.53-1.74,8.61-1.74
		c2.94,0,5.72,0.58,8.35,1.74C592.15,274.76,594.47,276.35,596.48,278.36z"/>
	<path class="st0" d="M683.6,291.58c2.32-3.59,3.48-7.64,3.48-12.14c0-3.07-0.6-5.94-1.79-8.61c-1.2-2.66-2.8-5-4.82-7.02
		c-2.01-2.01-4.35-3.6-7.02-4.77c-2.66-1.16-5.5-1.74-8.5-1.74h-29v71.72h14.14v-27.36h8.61l19.47,27.36h17.42l-21.11-29.51
		C678.23,297.81,681.27,295.16,683.6,291.58z M670.27,285.12c-1.71,1.6-4.37,2.41-7.99,2.41h-12.2v-15.98h12.2
		c3.62,0,6.28,0.77,7.99,2.31c1.71,1.53,2.56,3.4,2.56,5.58C672.84,281.62,671.98,283.52,670.27,285.12z"/>
	<path class="st0" d="M750.85,257.3l-24.39,27.15V257.3h-14.14v71.72h14.14v-23.05c0.75-0.75,1.47-1.52,2.15-2.31
		c0.68-0.79,1.33-1.55,1.95-2.31l22.95,27.66h18.54l-31.97-38.22L770,257.3H750.85z"/>
	<path class="st0" d="M801.82,272.52c1.6-1.13,3.84-1.69,6.71-1.69c1.57,0,3.11,0.28,4.61,0.82c1.5,0.55,2.83,1.13,4,1.74
		c1.37,0.75,2.7,1.57,4,2.46l8.81-11.06c-1.16-1.03-2.61-2.03-4.35-3.02c-1.74-0.99-3.6-1.86-5.58-2.61
		c-1.98-0.75-4.01-1.37-6.1-1.84c-2.09-0.48-4.05-0.72-5.89-0.72c-3.42,0-6.54,0.53-9.38,1.59c-2.83,1.06-5.26,2.53-7.28,4.41
		c-2.01,1.88-3.57,4.1-4.66,6.66c-1.1,2.56-1.64,5.31-1.64,8.25c0,2.87,0.49,5.4,1.49,7.58c0.99,2.19,2.39,4.13,4.2,5.84
		c1.81,1.71,3.94,3.19,6.4,4.46c2.46,1.26,5.12,2.45,7.99,3.53c2.46,0.96,4.51,1.86,6.15,2.72c1.64,0.86,2.92,1.66,3.84,2.41
		c0.92,0.75,1.57,1.45,1.95,2.1c0.37,0.65,0.56,1.25,0.56,1.8c0,1.43-0.31,2.63-0.92,3.59c-0.61,0.96-1.4,1.73-2.35,2.31
		c-0.96,0.58-2.02,1.01-3.18,1.28c-1.17,0.27-2.32,0.41-3.49,0.41c-1.37,0-2.8-0.27-4.3-0.82c-1.51-0.55-2.94-1.21-4.3-2
		c-1.37-0.79-2.58-1.6-3.64-2.46c-1.06-0.85-1.83-1.59-2.31-2.2l-10.65,9.84c0.55,0.61,1.53,1.6,2.97,2.97
		c1.43,1.37,3.07,2.63,4.92,3.79h-0.1c2.59,1.64,5.36,2.9,8.3,3.79c2.94,0.89,5.98,1.33,9.12,1.33c3.49,0,6.71-0.56,9.68-1.69
		c2.97-1.13,5.53-2.66,7.68-4.61c2.15-1.94,3.84-4.25,5.07-6.91c1.23-2.67,1.84-5.5,1.84-8.51c0-2.46-0.36-4.73-1.08-6.81
		c-0.72-2.08-1.93-4.03-3.64-5.84c-1.71-1.81-3.96-3.52-6.76-5.12c-2.8-1.6-6.25-3.19-10.35-4.77c-1.44-0.48-2.8-0.99-4.1-1.54
		c-1.3-0.55-2.44-1.14-3.43-1.79c-0.99-0.65-1.78-1.37-2.35-2.15c-0.58-0.78-0.87-1.66-0.87-2.61
		C799.41,275.27,800.22,273.65,801.82,272.52z"/>
	<path class="st0" d="M642.94,2.42c-87.42,0-163.86,47.7-204.81,118.41c12.19-2.57,21.9-11.67,27.23-17.73
		c1.45-1.89,2.93-3.76,4.44-5.6c0.01-0.01,0.04-0.05,0.04-0.05l0,0c41.06-50.14,103.39-82.21,173.1-82.21
		c123.38,0,223.77,100.38,223.77,223.76c0,123.38-100.38,223.77-223.77,223.77c-80.01,0-150.31-42.24-189.87-105.57
		c0,0-9.8-16.83-19.71-47.73c-2.65-7.79-4.54-14.42-5.85-20.06c-0.02-0.08-0.04-0.16-0.06-0.24l0.01,0
		c-4.66-20.24-1.85-27.66-0.22-30.02c0,0,0.1-0.15,0.3-0.37c0.51-0.62,1.04-1.02,1.51-1.25c1.3-0.76,3.25-1.2,5.68,0.41l0,0
		c0.88,0.6,1.58,1.5,2.14,2.44l1.24,3.13l20.8,66.24h7.37l19.26-44.06l19.16,44.06h7.37l14.68-46.68
		c10.31-27.21,25.05-31.7,27.64-32.29v-14.25c-1.92,0.15-3.89,0.63-5.79,1.31c-2.76,0.95-6.6,2.69-10.91,5.83
		c-0.31,0.22-0.48,0.35-0.48,0.35l0,0.01c-4.01,2.99-8.38,7.19-12.63,13.09c-4.34,6.02-8.54,13.83-12.08,23.91
		c-0.84,2.67-1.67,5.27-2.5,7.9c-1.05,3.33-2.12,6.73-3.16,10l-18.44-42.31h-5.84l-18.34,42.31l-11.92-37.51
		c-1.5-6.78-7.32-18.29-19.76-18.29c-0.24,0-0.48,0-0.72,0.01c-3.91-0.31-10.89,0.91-15.73,7.36c-8.05,10.73-6.96,31.2,3.34,61.95
		c0,0,11.32,31.03,22.51,51.11c2.02,3.63,3.56,5.92,4.73,7.28c42.52,63.11,114.59,104.75,196.25,104.75
		c130.45,0,236.58-106.13,236.58-236.58C879.52,108.55,773.39,2.42,642.94,2.42z"/>
</g>
</svg>
